# xmcd CD database file
#
# Track frame offsets:
#	150
#	22050
#	46700
#	68787
#	89025
#	107790
#	134072
#	156342
#	176647
#	196437
#	216517
#	237605
#	261000
#	283527
#	303017
#
# Disc length: 4366 seconds
#
# Revision: 1
# Processed by: cddbd v1.5.1PL0 Copyright (c) Steve Scherf et al.
# Submitted via: CDex 1.51
#
DISCID=e5110c0f
DTITLE=杉山清貴 - The BALLADS with Love
DYEAR=1990
DGENRE=Japanese Pop
TTITLE0=風のLONELY WAY
TTITLE1=サンセット・ラブソング
TTITLE2=PARK SIDE ROMANCE
TTITLE3=illusionを消した夜
TTITLE4=What rain can do to love
TTITLE5=あの夜の向こうに
TTITLE6=無言のDIALOGUE
TTITLE7=THE DREAM
TTITLE8=MOVING MY HEART
TTITLE9=alone
TTITLE10=ANGEL EYES
TTITLE11=BOUND FOR RIVER'S ISLAND
TTITLE12=reflexive love
TTITLE13=miss. dreamer
TTITLE14=最後のHoly Night
EXTD=YEAR: 1990
EXTT0=
EXTT1=
EXTT2=
EXTT3=
EXTT4=
EXTT5=
EXTT6=
EXTT7=
EXTT8=
EXTT9=
EXTT10=
EXTT11=
EXTT12=
EXTT13=
EXTT14=
PLAYORDER=
